<?xml version="1.0" standalone="no"?><!DOCTYPE svg PUBLIC "-//W3C//DTD SVG 1.1//EN" "http://www.w3.org/Graphics/SVG/1.1/DTD/svg11.dtd"><svg t="1761201971276" class="icon" viewBox="0 0 1024 1024" version="1.1" xmlns="http://www.w3.org/2000/svg" p-id="19665" width="64" height="64" xmlns:xlink="http://www.w3.org/1999/xlink"><path d="M695.466667 298.666667c-140.8 0-256 115.2-256 256v170.666666c0 25.6-17.066667 42.666667-42.666667 42.666667s-42.666667-17.066667-42.666667-42.666667v-213.333333h-170.666666v213.333333c0 119.466667 93.866667 213.333333 213.333333 213.333334s213.333333-93.866667 213.333333-213.333334v-170.666666c0-46.933333 38.4-85.333333 85.333334-85.333334s85.333333 38.4 85.333333 85.333334v362.666666h170.666667V554.666667c0-140.8-115.2-256-256-256zM439.466667 256c0-93.866667-76.8-170.666667-170.666667-170.666667s-170.666667 76.8-170.666667 170.666667 76.8 170.666667 170.666667 170.666667 170.666667-76.8 170.666667-170.666667z m-277.333334-21.333333h213.333334v42.666666h-213.333334v-42.666666z" fill="#1296db" p-id="19666"></path></svg>